HIERARCHY
ROOT Hips
{
	OFFSET 0.000000 0.000000 0.000000
	CHANNELS 6 Xposition Yposition Zposition Xrotation Yrotation Zrotation
	JOINT LeftUpLeg_virtual
	{
		OFFSET 0.000000 0.000000 0.000000
		CHANNELS 3 Xrotation Yrotation Zrotation
		JOINT LeftUpLeg
		{
			OFFSET 15.427100 -6.655098 0.678600
			CHANNELS 3 Xrotation Yrotation Zrotation
			JOINT LeftLeg
			{
				OFFSET 4.081073 -39.591068 13.024000
				CHANNELS 3 Xrotation Yrotation Zrotation
				JOINT LeftFoot
				{
					OFFSET -4.081074 -37.707932 -15.979700
					CHANNELS 3 Xrotation Yrotation Zrotation
					JOINT LeftToeBase
					{
						OFFSET 5.346399 -15.068900 20.645000
						CHANNELS 3 Xrotation Yrotation Zrotation
						JOINT LeftToe_End
						{
							OFFSET 2.754700 0.931300 11.300900
							CHANNELS 3 Xrotation Yrotation Zrotation
							End Site
							{
								OFFSET 0 0 0
							}
						}
					}
				}
			}
		}
	}
	JOINT RightUpLeg_virtual
	{
		OFFSET 0.000000 0.000000 0.000000
		CHANNELS 3 Xrotation Yrotation Zrotation
		JOINT RightUpLeg
		{
			OFFSET -15.569500 -6.655098 0.678600
			CHANNELS 3 Xrotation Yrotation Zrotation
			JOINT RightLeg
			{
				OFFSET -4.081825 -39.591045 13.023800
				CHANNELS 3 Xrotation Yrotation Zrotation
				JOINT RightFoot
				{
					OFFSET 4.081824 -37.707954 -15.979600
					CHANNELS 3 Xrotation Yrotation Zrotation
					JOINT RightToeBase
					{
						OFFSET -5.346400 -15.068900 20.645000
						CHANNELS 3 Xrotation Yrotation Zrotation
						JOINT RightToe_End
						{
							OFFSET -2.754700 0.931300 11.300900
							CHANNELS 3 Xrotation Yrotation Zrotation
							End Site
							{
								OFFSET 0 0 0
							}
						}
					}
				}
			}
		}
	}
	JOINT Spine_virtual
	{
		OFFSET 0.000000 0.000000 0.000000
		CHANNELS 3 Xrotation Yrotation Zrotation
		JOINT Spine
		{
			OFFSET -0.279200 12.230698 -2.892100
			CHANNELS 3 Xrotation Yrotation Zrotation
			JOINT Spine1
			{
				OFFSET -0.232667 10.192268 -1.242267
				CHANNELS 3 Xrotation Yrotation Zrotation
				JOINT Spine1_split
				{
					OFFSET -0.232667 10.192268 -1.242267
					CHANNELS 3 Xrotation Yrotation Zrotation
					JOINT Spine2
					{
						OFFSET -0.232667 10.192268 -1.242267
						CHANNELS 3 Xrotation Yrotation Zrotation
						JOINT Neck_virtual
						{
							OFFSET 0.000000 0.000000 0.000000
							CHANNELS 3 Xrotation Yrotation Zrotation
							JOINT Neck
							{
								OFFSET -0.418800 17.814194 8.416900
								CHANNELS 3 Xrotation Yrotation Zrotation
								JOINT Head
								{
									OFFSET 0.000000 7.031097 3.806800
									CHANNELS 3 Xrotation Yrotation Zrotation
									JOINT HeadTop_End
									{
										OFFSET 0.000000 24.646606 12.978600
										CHANNELS 3 Xrotation Yrotation Zrotation
										End Site
										{
											OFFSET 0 0 0
										}
									}
								}
							}
						}
						JOINT LeftShoulder_virtual
						{
							OFFSET 0.000000 0.000000 0.000000
							CHANNELS 3 Xrotation Yrotation Zrotation
							JOINT LeftShoulder
							{
								OFFSET 8.476499 7.247704 -3.868750
								CHANNELS 3 Xrotation Yrotation Zrotation
								JOINT LeftShoulder_split
								{
									OFFSET 8.476499 7.247704 -3.868750
									CHANNELS 3 Xrotation Yrotation Zrotation
									JOINT LeftArm
									{
										OFFSET 9.308998 -2.777710 0.208600
										CHANNELS 3 Xrotation Yrotation Zrotation
										JOINT LeftForeArm
										{
											OFFSET 29.972298 0.000000 0.000000
											CHANNELS 3 Xrotation Yrotation Zrotation
											JOINT LeftHand
											{
												OFFSET 26.026505 0.000000 0.000000
												CHANNELS 3 Xrotation Yrotation Zrotation
												End Site
												{
													OFFSET 0 0 0
												}
											}
										}
									}
								}
							}
						}
						JOINT RightShoulder_virtual
						{
							OFFSET 0.000000 0.000000 0.000000
							CHANNELS 3 Xrotation Yrotation Zrotation
							JOINT RightShoulder
							{
								OFFSET -7.570500 7.247704 -3.868750
								CHANNELS 3 Xrotation Yrotation Zrotation
								JOINT RightShoulder_split
								{
									OFFSET -7.570500 7.247704 -3.868750
									CHANNELS 3 Xrotation Yrotation Zrotation
									JOINT RightArm
									{
										OFFSET -9.308998 -2.777710 0.208500
										CHANNELS 3 Xrotation Yrotation Zrotation
										JOINT RightForeArm
										{
											OFFSET -29.972300 0.000000 0.000000
											CHANNELS 3 Xrotation Yrotation Zrotation
											JOINT RightHand
											{
												OFFSET -26.026505 0.000000 0.000000
												CHANNELS 3 Xrotation Yrotation Zrotation
												End Site
												{
													OFFSET 0 0 0
												}
											}
										}
									}
								}
							}
						}
					}
				}
			}
		}
	}
}
MOTION
Frames: 4
Frame Time: 0.03333333
5.467743 82.458588 -3.464199 0.000000 0.000000 0.000000 22.543248 12.418650 -3.368111 -61.792694 5.014166 -7.807942 65.322283 11.027104 -4.361201 15.349587 -8.945097 14.383555 2.669717 3.252230 -8.529490 0.000000 0.000000 0.000000 21.023158 8.898869 -2.132345 -19.381587 -17.384382 0.827104 35.995537 7.129068 3.331394 -34.300609 -12.372045 -3.719710 4.010771 3.081810 -7.450550 0.000000 0.000000 0.000000 22.442820 12.352068 -4.019556 4.821664 -1.560561 -0.652116 1.212502 -0.200824 -1.358542 0.025954 -0.301554 0.069770 0.000000 0.000000 0.000000 2.340553 2.727626 -1.265260 -19.950045 11.577820 3.986716 -19.122375 8.940041 -2.394876 0.000000 0.000000 0.000000 1.698470 1.548908 -1.339325 1.062984 3.147117 -16.179699 1.920490 0.703006 -0.854247 7.501722 4.898513 -44.490848 -6.510188 -64.605188 -11.296385 0.000000 0.000000 0.000000 3.596099 1.674287 -1.616303 -3.736662 3.460876 19.147262 1.348878 -3.130300 0.910113 14.881548 -14.963326 46.072881 -9.356185 69.284223 12.931834 0.000000 0.000000 0.000000 
4.672544 81.725670 0.538750 0.000000 0.000000 0.000000 22.307866 11.507777 -3.099324 -62.772970 8.717739 -7.755037 60.744608 12.716625 -3.743823 10.906194 -9.292097 15.767507 1.589218 3.343380 -7.564922 0.000000 0.000000 0.000000 22.361320 8.016704 -1.700098 -18.492995 -16.295901 1.373858 36.087629 7.232046 3.015255 -33.395264 -13.302802 -0.891310 -4.183434 3.454029 -7.322242 0.000000 0.000000 0.000000 23.301774 12.977846 -4.159976 5.107098 -1.315747 -0.911827 1.655951 -0.114874 -1.362508 0.160226 -0.375034 0.122490 0.000000 0.000000 0.000000 2.526805 2.740589 -1.310258 -20.065708 11.470589 4.240876 -19.596955 8.588813 -2.104507 0.000000 0.000000 0.000000 1.712998 1.659647 -1.400823 1.123392 3.295196 -16.094929 1.671722 0.138043 -0.818050 7.318649 5.036039 -44.526027 -6.887783 -64.608822 -11.546356 0.000000 0.000000 0.000000 3.610021 1.704377 -1.643280 -3.874425 3.396037 18.931990 1.350155 -1.991453 0.713041 15.248309 -14.548025 46.827702 -10.525175 70.441831 13.898943 0.000000 0.000000 0.000000 
3.656896 81.075661 5.391041 0.000000 0.000000 0.000000 22.702702 10.122906 -2.816395 -64.721274 12.363966 -7.172171 55.433467 13.544546 -2.041191 7.436161 -9.556230 15.278004 3.066365 3.050645 -4.723834 0.000000 0.000000 0.000000 24.026468 8.375559 -1.915435 -14.994024 -14.837172 2.650119 34.253091 6.823268 2.602110 -35.386589 -14.174324 -0.276914 -5.005315 3.736750 -7.627198 0.000000 0.000000 0.000000 24.233538 12.851651 -4.191869 5.519980 -0.833522 -1.220407 2.114412 0.148125 -1.398175 0.244200 -0.402738 0.131636 0.000000 0.000000 0.000000 2.795868 2.879725 -1.392136 -20.711726 11.170995 4.826202 -20.757268 7.320417 -1.656335 0.000000 0.000000 0.000000 1.664125 1.911728 -1.475656 1.129343 3.482046 -15.991872 1.215017 -0.527238 -0.829994 7.670031 4.822151 -44.849775 -6.906172 -64.603986 -11.367860 0.000000 0.000000 0.000000 3.632781 1.894867 -1.699864 -4.076088 3.335587 18.545121 1.508957 -1.434019 0.656011 16.051663 -14.009729 47.935118 -13.169259 72.047520 16.369289 0.000000 0.000000 0.000000 
2.642373 80.566696 10.642113 0.000000 0.000000 0.000000 23.614807 8.845918 -2.537498 -67.085906 14.668092 -6.798012 50.055963 13.061478 0.580559 6.455917 -9.691921 13.313206 4.770222 2.604159 -0.099249 0.000000 0.000000 0.000000 25.492460 8.543074 -2.364100 -10.594361 -13.560865 3.618260 30.925290 6.226446 2.178003 -38.590678 -14.697882 -0.841186 0.290023 4.060972 -8.328217 0.000000 0.000000 0.000000 25.307977 12.141478 -4.171677 5.838161 -0.246298 -1.581259 2.432348 0.505124 -1.443810 0.170031 -0.339707 0.094841 0.000000 0.000000 0.000000 3.126006 3.113509 -1.472788 -21.679686 10.719116 5.627693 -22.463423 5.396964 -1.092335 0.000000 0.000000 0.000000 1.551881 2.245462 -1.530856 1.093050 3.695873 -15.916202 0.668191 -1.021175 -0.802893 8.372917 4.337241 -45.395869 -6.599477 -64.533089 -10.780417 0.000000 0.000000 0.000000 3.660578 2.165860 -1.778960 -4.303587 3.203527 17.980090 1.763951 -1.369983 0.962110 17.198201 -13.611506 49.038617 -17.421010 73.991890 20.541254 0.000000 0.000000 0.000000 
